<svg width="20" height="20" viewBox="0 0 20 20" fill="none" xmlns="http://www.w3.org/2000/svg">
    <path d="M8.873 14.4069C8.9219 14.2903 8.947 14.1653 8.94687 14.039V4.95853C8.94687 4.42953 8.51153 4.00003 7.9728 4.00003H4.97153C4.43534 4.00003 4 4.43003 4 4.95853V14.039C4.00027 14.2934 4.10263 14.5373 4.2847 14.7174C4.46677 14.8975 4.71372 14.9991 4.97153 15H7.9728C8.10076 15.0002 8.22748 14.9754 8.34572 14.9271C8.46396 14.8789 8.57139 14.8081 8.66187 14.7189C8.75235 14.6296 8.82409 14.5236 8.873 14.4069Z" fill="black"/>
    <path d="M15.7155 10.7175C15.8975 10.5374 15.9999 10.2934 16 10.039V4.95853C16 4.42953 15.5642 4.00003 15.0285 4.00003H12.0272C11.4915 4.00003 11.0531 4.43003 11.0531 4.95853V10.039C11.0534 10.2938 11.1561 10.5381 11.3387 10.7183C11.5213 10.8984 11.7689 10.9998 12.0272 11H15.0285C15.2863 10.9992 15.5334 10.8977 15.7155 10.7175Z" fill="black"/>
    <path fill-rule="evenodd" clip-rule="evenodd" d="M15.2583 0.833061C11.7917 0.44562 8.20834 0.44562 4.74177 0.833061C2.72971 1.05794 1.10538 2.64295 0.868826 4.66548C0.454288 8.20978 0.454288 11.7903 0.868826 15.3346C1.10538 17.3571 2.72971 18.9422 4.74177 19.167C8.20835 19.5545 11.7917 19.5545 15.2583 19.167C17.2703 18.9422 18.8946 17.3571 19.1312 15.3346C19.5457 11.7903 19.5457 8.20978 19.1312 4.66548C18.8946 2.64295 17.2703 1.05794 15.2583 0.833061ZM4.90838 2.32378C8.26423 1.94871 11.7358 1.94871 15.0916 2.32378C16.4218 2.47244 17.4872 3.52205 17.6414 4.83973C18.0424 8.26825 18.0424 11.7318 17.6414 15.1604C17.4872 16.478 16.4218 17.5277 15.0916 17.6763C11.7358 18.0514 8.26423 18.0514 4.90838 17.6763C3.57827 17.5277 2.51278 16.478 2.35867 15.1604C1.95767 11.7318 1.95767 8.26825 2.35867 4.83973C2.51278 3.52205 3.57827 2.47244 4.90838 2.32378Z" fill="black"/>
</svg>
