<svg width="16" height="20" viewBox="0 0 16 20" fill="none" xmlns="http://www.w3.org/2000/svg">
    <path d="M6.5 14C6.5 13.1716 7.17157 12.5 8 12.5C8.82843 12.5 9.5 13.1716 9.5 14C9.5 14.8284 8.82843 15.5 8 15.5C7.17157 15.5 6.5 14.8284 6.5 14Z" fill="black"/>
    <path fill-rule="evenodd" clip-rule="evenodd" d="M3.62165 8.59713L3.30621 5.75816C3.26577 5.39418 3.26577 5.02684 3.30621 4.66286L3.32898 4.45796C3.57046 2.28457 5.27907 0.564916 7.45085 0.309412C7.81568 0.266492 8.18428 0.266492 8.5491 0.309412C10.7209 0.564916 12.4295 2.28458 12.671 4.45797L12.6937 4.66286C12.7342 5.02684 12.7342 5.39418 12.6937 5.75815L12.3783 8.59712L13.0649 8.65194C14.1476 8.73837 15.0317 9.55228 15.2073 10.6242C15.5733 12.8598 15.5733 15.1401 15.2073 17.3758C15.0317 18.4477 14.1476 19.2616 13.0649 19.348L11.5688 19.4675C9.19339 19.6571 6.80666 19.6571 4.43128 19.4675L2.93515 19.348C1.85242 19.2616 0.968319 18.4477 0.792803 17.3758C0.426732 15.1401 0.426732 12.8598 0.792803 10.6242C0.968319 9.55228 1.85242 8.73837 2.93515 8.65194L3.62165 8.59713ZM7.62611 1.79914C7.8745 1.76992 8.12545 1.76992 8.37384 1.79914C9.85246 1.97309 11.0157 3.1439 11.1802 4.62361L11.2029 4.82851C11.2311 5.08239 11.2311 5.33862 11.2029 5.59251L10.8818 8.48296C8.96256 8.35938 7.0374 8.35938 5.1182 8.48296L4.79704 5.59251C4.76883 5.33862 4.76883 5.08239 4.79704 4.82851L4.8198 4.62361C4.98422 3.1439 6.14749 1.97309 7.62611 1.79914ZM11.4494 10.0277C9.15347 9.84445 6.84658 9.84445 4.55065 10.0277L3.05452 10.1472C2.65959 10.1787 2.33711 10.4756 2.27309 10.8666C1.9333 12.9417 1.9333 15.0583 2.27309 17.1334C2.33711 17.5244 2.65959 17.8213 3.05452 17.8528L4.55065 17.9722C6.84658 18.1555 9.15347 18.1555 11.4494 17.9722L12.9455 17.8528C13.3405 17.8213 13.6629 17.5244 13.727 17.1334C14.0668 15.0583 14.0668 12.9417 13.727 10.8666C13.6629 10.4756 13.3405 10.1787 12.9455 10.1472L11.4494 10.0277Z" fill="black"/>
</svg>
