<svg width="18" height="20" viewBox="0 0 18 15" fill="none" xmlns="http://www.w3.org/2000/svg">
    <path d="M5 5.50001C4.30964 5.50001 3.75 6.05965 3.75 6.75001C3.75 7.44036 4.30964 8.00001 5 8.00001C5.69036 8.00001 6.25 7.44036 6.25 6.75001C6.25 6.05965 5.69036 5.50001 5 5.50001Z" fill="black"/>
    <path d="M9 5.50001C8.30964 5.50001 7.75 6.05965 7.75 6.75001C7.75 7.44036 8.30964 8.00001 9 8.00001C9.69036 8.00001 10.25 7.44036 10.25 6.75001C10.25 6.05965 9.69036 5.50001 9 5.50001Z" fill="black"/>
    <path d="M11.75 6.75001C11.75 6.05965 12.3096 5.50001 13 5.50001C13.6904 5.50001 14.25 6.05965 14.25 6.75001C14.25 7.44036 13.6904 8.00001 13 8.00001C12.3096 8.00001 11.75 7.44036 11.75 6.75001Z" fill="black"/>
    <path fill-rule="evenodd" clip-rule="evenodd" d="M13.1007 0.592799C10.4065 0.363039 7.69826 0.349705 5.00194 0.552926L4.80871 0.567489C2.23741 0.761287 0.25 2.90412 0.25 5.48272V14C0.25 14.2639 0.388666 14.5083 0.615148 14.6437C0.841631 14.7791 1.12261 14.7856 1.35504 14.6607L5.26583 12.5589C5.44774 12.4612 5.65104 12.41 5.85756 12.41H14.834C15.9661 12.41 16.9362 11.6006 17.1392 10.4869C17.5505 8.22963 17.5829 5.91966 17.2353 3.65176L17.1329 2.98343C16.9464 1.76668 15.951 0.835867 14.7245 0.73127L13.1007 0.592799ZM5.11468 2.04868C7.73103 1.85149 10.359 1.86443 12.9733 2.08737L14.597 2.22585C15.1334 2.27158 15.5686 2.67862 15.6502 3.2107L15.7526 3.87903C16.075 5.98231 16.0449 8.1246 15.6635 10.218C15.5904 10.6188 15.2413 10.91 14.834 10.91H5.85756C5.40322 10.91 4.95596 11.0226 4.55575 11.2377L1.75 12.7455V5.48272C1.75 3.68881 3.13262 2.19807 4.92144 2.06325L5.11468 2.04868Z" fill="black"/>
</svg>
